<?xml version="1.0" encoding="utf-8"?>
<!-- Generator: Adobe Illustrator 23.0.0, SVG Export Plug-In . SVG Version: 6.00 Build 0)  -->
<svg version="1.1" id="Capa_1" xmlns="http://www.w3.org/2000/svg" xmlns:xlink="http://www.w3.org/1999/xlink" x="0px" y="0px"
	 viewBox="0 0 31.1 7.7" style="enable-background:new 0 0 31.1 7.7;" xml:space="preserve">
<style type="text/css">
	.st0{enable-background:new    ;}
	.st1{fill:#4CD964;}
</style>
<g class="st0">
	<path class="st1" d="M6.9,1.5c0.6,0.6,0.9,1.4,0.9,2.3c0,0.9-0.3,1.7-0.9,2.4c-0.6,0.7-1.4,1-2.3,1c-0.9,0-1.7-0.3-2.3-1
		C1.7,5.5,1.4,4.7,1.4,3.8c0-0.9,0.3-1.7,0.9-2.3c0.6-0.6,1.4-0.9,2.3-0.9C5.6,0.5,6.3,0.8,6.9,1.5z"/>
	<path class="st1" d="M17.9,1.5c0.6,0.6,0.9,1.4,0.9,2.3c0,0.9-0.3,1.7-0.9,2.4c-0.6,0.7-1.4,1-2.3,1c-0.9,0-1.7-0.3-2.3-1
		c-0.6-0.6-0.9-1.4-0.9-2.4c0-0.9,0.3-1.7,0.9-2.3c0.6-0.6,1.4-0.9,2.3-0.9C16.5,0.5,17.3,0.8,17.9,1.5z"/>
</g>
<g class="st0">
	<path class="st1" d="M28.8,1.5c0.6,0.6,0.9,1.4,0.9,2.3c0,0.9-0.3,1.7-0.9,2.4c-0.6,0.7-1.4,1-2.3,1c-0.9,0-1.7-0.3-2.3-1
		c-0.6-0.6-0.9-1.4-0.9-2.4c0-0.9,0.3-1.7,0.9-2.3c0.6-0.6,1.4-0.9,2.3-0.9C27.4,0.5,28.2,0.8,28.8,1.5z"/>
</g>
</svg>
